<?xml version="1.0" encoding="UTF-8"?>
<!DOCTYPE svg PUBLIC "-//W3C//DTD SVG 1.1//EN" "http://www.w3.org/Graphics/SVG/1.1/DTD/svg11.dtd">
<svg version="1.2" width="110.36mm" height="110.36mm" viewBox="5318 2418 11036 11036" preserveAspectRatio="xMidYMid" fill-rule="evenodd" stroke-width="28.222" stroke-linejoin="round" xmlns="http://www.w3.org/2000/svg" xmlns:ooo="http://xml.openoffice.org/svg/export" xmlns:xlink="http://www.w3.org/1999/xlink" xmlns:presentation="http://sun.com/xmlns/staroffice/presentation" xmlns:smil="http://www.w3.org/2001/SMIL20/" xmlns:anim="urn:oasis:names:tc:opendocument:xmlns:animation:1.0" xml:space="preserve">
 <defs class="ClipPathGroup">
  <clipPath id="presentation_clip_path" clipPathUnits="userSpaceOnUse">
   <rect x="5318" y="2418" width="11036" height="11036"/>
  </clipPath>
  <clipPath id="presentation_clip_path_shrink" clipPathUnits="userSpaceOnUse">
   <rect x="5329" y="2429" width="11014" height="11014"/>
  </clipPath>
 </defs>
 <defs class="TextShapeIndex">
  <g ooo:slide="id1" ooo:id-list="id3 id4 id5 id6 id7 id8 id9 id10 id11 id12"/>
 </defs>
 <defs class="EmbeddedBulletChars">
  <g id="bullet-char-template-57356" transform="scale(0.00048828125,-0.00048828125)">
   <path d="M 580,1141 L 1163,571 580,0 -4,571 580,1141 Z"/>
  </g>
  <g id="bullet-char-template-57354" transform="scale(0.00048828125,-0.00048828125)">
   <path d="M 8,1128 L 1137,1128 1137,0 8,0 8,1128 Z"/>
  </g>
  <g id="bullet-char-template-10146" transform="scale(0.00048828125,-0.00048828125)">
   <path d="M 174,0 L 602,739 174,1481 1456,739 174,0 Z M 1358,739 L 309,1346 659,739 1358,739 Z"/>
  </g>
  <g id="bullet-char-template-10132" transform="scale(0.00048828125,-0.00048828125)">
   <path d="M 2015,739 L 1276,0 717,0 1260,543 174,543 174,936 1260,936 717,1481 1274,1481 2015,739 Z"/>
  </g>
  <g id="bullet-char-template-10007" transform="scale(0.00048828125,-0.00048828125)">
   <path d="M 0,-2 C -7,14 -16,27 -25,37 L 356,567 C 262,823 215,952 215,954 215,979 228,992 255,992 264,992 276,990 289,987 310,991 331,999 354,1012 L 381,999 492,748 772,1049 836,1024 860,1049 C 881,1039 901,1025 922,1006 886,937 835,863 770,784 769,783 710,716 594,584 L 774,223 C 774,196 753,168 711,139 L 727,119 C 717,90 699,76 672,76 641,76 570,178 457,381 L 164,-76 C 142,-110 111,-127 72,-127 30,-127 9,-110 8,-76 1,-67 -2,-52 -2,-32 -2,-23 -1,-13 0,-2 Z"/>
  </g>
  <g id="bullet-char-template-10004" transform="scale(0.00048828125,-0.00048828125)">
   <path d="M 285,-33 C 182,-33 111,30 74,156 52,228 41,333 41,471 41,549 55,616 82,672 116,743 169,778 240,778 293,778 328,747 346,684 L 369,508 C 377,444 397,411 428,410 L 1163,1116 C 1174,1127 1196,1133 1229,1133 1271,1133 1292,1118 1292,1087 L 1292,965 C 1292,929 1282,901 1262,881 L 442,47 C 390,-6 338,-33 285,-33 Z"/>
  </g>
  <g id="bullet-char-template-9679" transform="scale(0.00048828125,-0.00048828125)">
   <path d="M 813,0 C 632,0 489,54 383,161 276,268 223,411 223,592 223,773 276,916 383,1023 489,1130 632,1184 813,1184 992,1184 1136,1130 1245,1023 1353,916 1407,772 1407,592 1407,412 1353,268 1245,161 1136,54 992,0 813,0 Z"/>
  </g>
  <g id="bullet-char-template-8226" transform="scale(0.00048828125,-0.00048828125)">
   <path d="M 346,457 C 273,457 209,483 155,535 101,586 74,649 74,723 74,796 101,859 155,911 209,963 273,989 346,989 419,989 480,963 531,910 582,859 608,796 608,723 608,648 583,586 532,535 482,483 420,457 346,457 Z"/>
  </g>
  <g id="bullet-char-template-8211" transform="scale(0.00048828125,-0.00048828125)">
   <path d="M -4,459 L 1135,459 1135,606 -4,606 -4,459 Z"/>
  </g>
  <g id="bullet-char-template-61548" transform="scale(0.00048828125,-0.00048828125)">
   <path d="M 173,740 C 173,903 231,1043 346,1159 462,1274 601,1332 765,1332 928,1332 1067,1274 1183,1159 1299,1043 1357,903 1357,740 1357,577 1299,437 1183,322 1067,206 928,148 765,148 601,148 462,206 346,322 231,437 173,577 173,740 Z"/>
  </g>
 </defs>
 <defs class="TextEmbeddedBitmaps"/>
 <g class="SlideGroup">
  <g>
   <g id="container-id1">
    <g id="id1" class="Slide" clip-path="url(#presentation_clip_path)">
     <g class="Page">
      <g class="com.sun.star.drawing.CustomShape">
       <g id="id3">
        <rect class="BoundingBox" stroke="none" fill="none" x="11014" y="9959" width="4404" height="2294"/>
        <path fill="rgb(203,60,51)" stroke="none" d="M 11396,9960 C 11205,9960 11015,10150 11015,10341 L 11015,11869 C 11015,12060 11205,12251 11396,12251 L 15034,12251 C 15224,12251 15415,12060 15415,11869 L 15415,10341 C 15415,10150 15224,9960 15034,9960 L 11396,9960 Z M 11015,9960 L 11015,9960 Z M 15416,12251 L 15416,12251 Z"/>
        <path fill="none" stroke="rgb(203,60,51)" d="M 11396,9960 C 11205,9960 11015,10150 11015,10341 L 11015,11869 C 11015,12060 11205,12251 11396,12251 L 15034,12251 C 15224,12251 15415,12060 15415,11869 L 15415,10341 C 15415,10150 15224,9960 15034,9960 L 11396,9960 Z"/>
        <path fill="none" stroke="rgb(203,60,51)" d="M 11015,9960 L 11015,9960 Z"/>
        <path fill="none" stroke="rgb(203,60,51)" d="M 15416,12251 L 15416,12251 Z"/>
       </g>
      </g>
      <g class="com.sun.star.drawing.CustomShape">
       <g id="id4">
        <rect class="BoundingBox" stroke="none" fill="none" x="11034" y="3534" width="4404" height="2294"/>
        <path fill="rgb(56,152,38)" stroke="none" d="M 11416,3535 C 11225,3535 11035,3725 11035,3916 L 11035,5444 C 11035,5635 11225,5826 11416,5826 L 15054,5826 C 15244,5826 15435,5635 15435,5444 L 15435,3916 C 15435,3725 15244,3535 15054,3535 L 11416,3535 Z M 11035,3535 L 11035,3535 Z M 15436,5826 L 15436,5826 Z"/>
        <path fill="none" stroke="rgb(56,152,38)" d="M 11416,3535 C 11225,3535 11035,3725 11035,3916 L 11035,5444 C 11035,5635 11225,5826 11416,5826 L 15054,5826 C 15244,5826 15435,5635 15435,5444 L 15435,3916 C 15435,3725 15244,3535 15054,3535 L 11416,3535 Z"/>
        <path fill="none" stroke="rgb(56,152,38)" d="M 11035,3535 L 11035,3535 Z"/>
        <path fill="none" stroke="rgb(56,152,38)" d="M 15436,5826 L 15436,5826 Z"/>
       </g>
      </g>
      <g class="com.sun.star.drawing.CustomShape">
       <g id="id5">
        <rect class="BoundingBox" stroke="none" fill="none" x="11034" y="6794" width="4404" height="2244"/>
        <path fill="rgb(64,99,216)" stroke="none" d="M 11408,6795 C 11221,6795 11035,6981 11035,7168 L 11035,8662 C 11035,8849 11221,9036 11408,9036 L 15062,9036 C 15249,9036 15436,8849 15436,8662 L 15436,7168 C 15436,6981 15249,6795 15062,6795 L 11408,6795 Z M 11035,6795 L 11035,6795 Z M 15436,9036 L 15436,9036 Z"/>
        <path fill="none" stroke="rgb(52,101,164)" d="M 11408,6795 C 11221,6795 11035,6981 11035,7168 L 11035,8662 C 11035,8849 11221,9036 11408,9036 L 15062,9036 C 15249,9036 15436,8849 15436,8662 L 15436,7168 C 15436,6981 15249,6795 15062,6795 L 11408,6795 Z"/>
        <path fill="none" stroke="rgb(52,101,164)" d="M 11035,6795 L 11035,6795 Z"/>
        <path fill="none" stroke="rgb(52,101,164)" d="M 15436,9036 L 15436,9036 Z"/>
       </g>
      </g>
      <g class="com.sun.star.drawing.CustomShape">
       <g id="id6">
        <rect class="BoundingBox" stroke="none" fill="none" x="5934" y="6794" width="4404" height="2244"/>
        <path fill="rgb(149,88,178)" stroke="none" d="M 6308,6795 C 6121,6795 5935,6981 5935,7168 L 5935,8662 C 5935,8849 6121,9036 6308,9036 L 9962,9036 C 10149,9036 10336,8849 10336,8662 L 10336,7168 C 10336,6981 10149,6795 9962,6795 L 6308,6795 Z M 5935,6795 L 5935,6795 Z M 10336,9036 L 10336,9036 Z"/>
        <path fill="none" stroke="rgb(149,88,178)" d="M 6308,6795 C 6121,6795 5935,6981 5935,7168 L 5935,8662 C 5935,8849 6121,9036 6308,9036 L 9962,9036 C 10149,9036 10336,8849 10336,8662 L 10336,7168 C 10336,6981 10149,6795 9962,6795 L 6308,6795 Z"/>
        <path fill="none" stroke="rgb(149,88,178)" d="M 5935,6795 L 5935,6795 Z"/>
        <path fill="none" stroke="rgb(149,88,178)" d="M 10336,9036 L 10336,9036 Z"/>
       </g>
      </g>
      <g class="com.sun.star.drawing.LineShape">
       <g id="id7">
        <rect class="BoundingBox" stroke="none" fill="none" x="7772" y="4651" width="213" height="2303"/>
        <path fill="none" stroke="rgb(56,152,38)" stroke-width="212" stroke-linejoin="round" d="M 7878,6847 L 7878,4757"/>
       </g>
      </g>
      <g class="com.sun.star.drawing.LineShape">
       <g id="id8">
        <rect class="BoundingBox" stroke="none" fill="none" x="7772" y="9004" width="213" height="2303"/>
        <path fill="none" stroke="rgb(203,60,51)" stroke-width="212" stroke-linejoin="round" d="M 7878,11200 L 7878,9110"/>
       </g>
      </g>
      <g class="com.sun.star.drawing.LineShape">
       <g id="id9">
        <rect class="BoundingBox" stroke="none" fill="none" x="7772" y="4448" width="3259" height="619"/>
        <path fill="none" stroke="rgb(56,152,38)" stroke-width="212" stroke-linejoin="round" d="M 7878,4757 L 10578,4757"/>
        <path fill="rgb(56,152,38)" stroke="none" d="M 11030,4756 L 10537,4448 10537,5066 11030,4756 Z"/>
       </g>
      </g>
      <g class="com.sun.star.drawing.LineShape">
       <g id="id10">
        <rect class="BoundingBox" stroke="none" fill="none" x="10224" y="7582" width="807" height="619"/>
        <path fill="none" stroke="rgb(64,99,216)" stroke-width="212" stroke-linejoin="round" d="M 10330,7891 L 10578,7891"/>
        <path fill="rgb(64,99,216)" stroke="none" d="M 11030,7890 L 10537,7582 10537,8200 11030,7890 Z"/>
       </g>
      </g>
      <g class="com.sun.star.drawing.LineShape">
       <g id="id11">
        <rect class="BoundingBox" stroke="none" fill="none" x="7772" y="10891" width="3259" height="619"/>
        <path fill="none" stroke="rgb(203,60,51)" stroke-width="212" stroke-linejoin="round" d="M 7878,11200 L 10578,11200"/>
        <path fill="rgb(203,60,51)" stroke="none" d="M 11030,11199 L 10537,10891 10537,11509 11030,11199 Z"/>
       </g>
      </g>
      <g class="com.sun.star.drawing.CustomShape">
       <g id="id12">
        <rect class="BoundingBox" stroke="none" fill="none" x="5317" y="2417" width="11038" height="11038"/>
        <path fill="none" stroke="rgb(104,104,104)" stroke-width="35" stroke-linejoin="round" d="M 7168,2435 C 6251,2435 5335,3351 5335,4268 L 5335,11602 C 5335,12519 6251,13436 7168,13436 L 14502,13436 C 15419,13436 16336,12519 16336,11602 L 16336,4268 C 16336,3351 15419,2435 14502,2435 L 7168,2435 Z"/>
       </g>
      </g>
     </g>
    </g>
   </g>
  </g>
 </g>
</svg>